<mxfile host="app.diagrams.net" agent="Mozilla/5.0 (Macintosh; Intel Mac OS X 10_15_7) AppleWebKit/537.36 (KHTML, like Gecko) Chrome/140.0.0.0 Safari/537.36" version="28.2.3">
  <diagram name="Page-1" id="x2bPdz2PFE2VwzSeQw2j">
    <mxGraphModel dx="1286" dy="750" grid="1" gridSize="10" guides="1" tooltips="1" connect="1" arrows="1" fold="1" page="1" pageScale="1" pageWidth="827" pageHeight="1169" math="0" shadow="0">
      <root>
        <mxCell id="0" />
        <mxCell id="1" parent="0" />
        <mxCell id="EF4R-mI206x1VXKr7yuf-4" value="" style="rounded=1;whiteSpace=wrap;html=1;" vertex="1" parent="1">
          <mxGeometry x="490" y="470" width="120" height="60" as="geometry" />
        </mxCell>
        <mxCell id="EF4R-mI206x1VXKr7yuf-1" value="wrk-ork&lt;div&gt;(orchestrator)&lt;/div&gt;" style="rounded=1;whiteSpace=wrap;html=1;" vertex="1" parent="1">
          <mxGeometry x="140" y="470" width="120" height="60" as="geometry" />
        </mxCell>
        <mxCell id="EF4R-mI206x1VXKr7yuf-2" value="app-node" style="rounded=1;whiteSpace=wrap;html=1;" vertex="1" parent="1">
          <mxGeometry x="140" y="280" width="120" height="60" as="geometry" />
        </mxCell>
        <mxCell id="EF4R-mI206x1VXKr7yuf-3" value="wrk-book" style="rounded=1;whiteSpace=wrap;html=1;" vertex="1" parent="1">
          <mxGeometry x="470" y="460" width="120" height="60" as="geometry" />
        </mxCell>
        <mxCell id="EF4R-mI206x1VXKr7yuf-9" value="" style="endArrow=classic;html=1;rounded=0;" edge="1" parent="1">
          <mxGeometry width="50" height="50" relative="1" as="geometry">
            <mxPoint x="199.5" y="350" as="sourcePoint" />
            <mxPoint x="199.5" y="450" as="targetPoint" />
          </mxGeometry>
        </mxCell>
        <mxCell id="EF4R-mI206x1VXKr7yuf-10" value="" style="endArrow=classic;html=1;rounded=0;" edge="1" parent="1">
          <mxGeometry width="50" height="50" relative="1" as="geometry">
            <mxPoint x="200" y="160" as="sourcePoint" />
            <mxPoint x="199.5" y="250" as="targetPoint" />
          </mxGeometry>
        </mxCell>
        <mxCell id="EF4R-mI206x1VXKr7yuf-12" value="http" style="text;html=1;align=center;verticalAlign=middle;whiteSpace=wrap;rounded=0;" vertex="1" parent="1">
          <mxGeometry x="140" y="190" width="60" height="30" as="geometry" />
        </mxCell>
        <mxCell id="EF4R-mI206x1VXKr7yuf-13" value="rpc" style="text;html=1;align=center;verticalAlign=middle;whiteSpace=wrap;rounded=0;" vertex="1" parent="1">
          <mxGeometry x="140" y="380" width="60" height="30" as="geometry" />
        </mxCell>
        <mxCell id="EF4R-mI206x1VXKr7yuf-14" value="" style="endArrow=classic;startArrow=classic;html=1;rounded=0;" edge="1" parent="1">
          <mxGeometry width="50" height="50" relative="1" as="geometry">
            <mxPoint x="270" y="500" as="sourcePoint" />
            <mxPoint x="460" y="500" as="targetPoint" />
          </mxGeometry>
        </mxCell>
        <mxCell id="EF4R-mI206x1VXKr7yuf-15" value="registers 1:M wrk-books" style="text;html=1;align=center;verticalAlign=middle;whiteSpace=wrap;rounded=0;" vertex="1" parent="1">
          <mxGeometry x="300" y="470" width="140" height="30" as="geometry" />
        </mxCell>
        <mxCell id="EF4R-mI206x1VXKr7yuf-16" value="frontend UI" style="rounded=1;whiteSpace=wrap;html=1;" vertex="1" parent="1">
          <mxGeometry x="140" y="80" width="120" height="60" as="geometry" />
        </mxCell>
        <mxCell id="EF4R-mI206x1VXKr7yuf-17" value="&lt;h1 style=&quot;margin-top: 0px;&quot;&gt;&lt;span style=&quot;background-color: transparent; color: light-dark(rgb(0, 0, 0), rgb(255, 255, 255));&quot;&gt;wrk app&lt;/span&gt;&lt;/h1&gt;&lt;h1 style=&quot;margin-top: 0px;&quot;&gt;&lt;br&gt;&lt;/h1&gt;" style="text;html=1;whiteSpace=wrap;overflow=hidden;rounded=0;" vertex="1" parent="1">
          <mxGeometry x="340" y="10" width="180" height="40" as="geometry" />
        </mxCell>
      </root>
    </mxGraphModel>
  </diagram>
</mxfile>
